<svg xmlns="http://www.w3.org/2000/svg" width="1024" height="1024">
    <path d="M464.429 72.302c17.599-41.803 77.543-41.803 95.141 0l103.875 246.727c7.424 17.623 24.202 29.664 43.459 31.189l269.619 21.354c45.681 3.618 64.205 59.938 29.399 89.392l-205.42 173.839c-14.674 12.416-21.084 31.903-16.599 50.463l62.756 259.927c10.634 44.037-37.857 78.848-76.969 55.25l-230.835-139.29c-16.486-9.953-37.222-9.953-53.71 0l-230.835 139.29c-39.111 23.598-87.605-11.213-76.972-55.25l62.76-259.927c4.483-18.56-1.925-38.047-16.597-50.463L18.076 460.964c-34.805-29.454-16.281-85.773 29.401-89.392L317.1 350.218c19.258-1.525 36.035-13.566 43.454-31.189L464.429 72.302z"/>
</svg>